<svg xmlns="http://www.w3.org/2000/svg" viewBox="-1 -1 484 377"><g id="logos"><path d="M122.2 55.35 187.99 55.35 179.23-0.65 95.08-0.65 122.2 55.35Z" stroke="none" stroke-width="1" stroke-linecap="butt" stroke-linejoin="miter" stroke-miterlimit="4" fill="#01111F" fill-opacity="1"/><path d="M203.87 55.35 279.47 55.35 287.61-0.65 195.11-0.65 203.87 55.35Z" stroke="none" stroke-width="1" stroke-linecap="butt" stroke-linejoin="miter" stroke-miterlimit="4" fill="#01111F" fill-opacity="1"/><path d="M55.14 179.08 55.14 121.46-0.86 98.5-0.86 179.08 55.14 179.08Z" stroke="none" stroke-width="1" stroke-linecap="butt" stroke-linejoin="miter" stroke-miterlimit="4" fill="#01111F" fill-opacity="1"/><path d="M425.77 194.78 425.77 252.39 481.76 275.36 481.76 194.78 425.77 194.78Z" stroke="none" stroke-width="1" stroke-linecap="butt" stroke-linejoin="miter" stroke-miterlimit="4" fill="#01111F" fill-opacity="1"/><path d="M177.78 374.5 185.92 318.5 123.41 318.5 96.29 374.5 177.78 374.5Z" stroke="none" stroke-width="1" stroke-linecap="butt" stroke-linejoin="miter" stroke-miterlimit="4" fill="#01111F" fill-opacity="1"/><path d="M303.48-0.65 295.34 55.35 358.7 55.35 385.82-0.65 303.48-0.65Z" stroke="none" stroke-width="1" stroke-linecap="butt" stroke-linejoin="miter" stroke-miterlimit="4" fill="#01111F" fill-opacity="1"/><path d="M55.14 252.39 55.14 194.78-0.86 194.78-0.86 275.36 55.14 252.39Z" stroke="none" stroke-width="1" stroke-linecap="butt" stroke-linejoin="miter" stroke-miterlimit="4" fill="#01111F" fill-opacity="1"/><path d="M105.97 318.5 84.81 318.5C68.45 318.5 55.14 305.19 55.14 288.83L55.14 269.37-0.78 292.29C0.97 335.97 35.58 371.33 78.95 374.28L105.96 318.5Z" stroke="none" stroke-width="1" stroke-linecap="butt" stroke-linejoin="miter" stroke-miterlimit="4" fill="#01111F" fill-opacity="1"/><path d="M425.77 269.36 425.77 288.83C425.77 305.19 412.46 318.5 396.1 318.5L374.94 318.5 401.95 374.28C445.32 371.34 479.93 335.98 481.68 292.29L425.77 269.36Z" stroke="none" stroke-width="1" stroke-linecap="butt" stroke-linejoin="miter" stroke-miterlimit="4" fill="#01111F" fill-opacity="1"/><path d="M55.14 104.49 55.14 85.02C55.14 68.66 68.45 55.35 84.81 55.35L104.76 55.35 77.78-0.34C34.96 3.16 0.96 38.27-0.78 81.56L55.13 104.49Z" stroke="none" stroke-width="1" stroke-linecap="butt" stroke-linejoin="miter" stroke-miterlimit="4" fill="#01111F" fill-opacity="1"/><path d="M357.49 318.5 292.52 318.5 301.28 374.5 384.61 374.5 357.49 318.5Z" stroke="none" stroke-width="1" stroke-linecap="butt" stroke-linejoin="miter" stroke-miterlimit="4" fill="#01111F" fill-opacity="1"/><path d="M276.63 318.5 201.79 318.5 193.65 374.5 285.39 374.5 276.63 318.5Z" stroke="none" stroke-width="1" stroke-linecap="butt" stroke-linejoin="miter" stroke-miterlimit="4" fill="#01111F" fill-opacity="1"/><path d="M376.14 55.35 396.09 55.35C412.45 55.35 425.76 68.66 425.76 85.02L425.76 104.49 481.67 81.56C479.94 38.27 445.93 3.15 403.11-0.34L376.14 55.35Z" stroke="none" stroke-width="1" stroke-linecap="butt" stroke-linejoin="miter" stroke-miterlimit="4" fill="#01111F" fill-opacity="1"/><path d="M425.77 121.46 425.77 179.08 481.76 179.08 481.76 98.5 425.77 121.46Z" stroke="none" stroke-width="1" stroke-linecap="butt" stroke-linejoin="miter" stroke-miterlimit="4" fill="#01111F" fill-opacity="1"/></g></svg>
